<svg width="480" height="480" viewBox="0 0 480 480" fill="none" xmlns="http://www.w3.org/2000/svg">
<path d="M21.333 406.175C15.098 403.962 9.70055 399.873 5.88112 394.471C2.06169 389.068 0.00738079 382.616 0 376V72H16V376C16.0036 379.309 17.0307 382.535 18.9405 385.237C20.8503 387.939 23.5492 389.984 26.667 391.091L21.333 406.175ZM256 0H32C23.516 0.00952843 15.3822 3.38401 9.38311 9.38311C3.38401 15.3822 0.00952843 23.516 0 32V56H16V32C16.005 27.7581 17.6924 23.6913 20.6918 20.6918C23.6913 17.6924 27.7581 16.005 32 16H256C259.309 16.0036 262.535 17.0307 265.237 18.9405C267.939 20.8503 269.984 23.5492 271.091 26.667L286.175 21.333C283.962 15.098 279.873 9.70055 274.471 5.88112C269.068 2.06169 262.616 0.00738079 256 0V0ZM312 128V72C311.995 67.7581 310.308 63.6913 307.308 60.6918C304.309 57.6924 300.242 56.005 296 56H128V96C127.99 104.484 124.616 112.618 118.617 118.617C112.618 124.616 104.484 127.99 96 128H56V416C56.005 420.242 57.6924 424.309 60.6918 427.308C63.6913 430.308 67.7581 431.995 72 432H200V448H72C63.516 447.99 55.3822 444.616 49.3831 438.617C43.384 432.618 40.0095 424.484 40 416V120C40 118.949 40.2069 117.909 40.6089 116.938C41.0109 115.968 41.6001 115.086 42.343 114.343L114.343 42.343C115.086 41.6001 115.968 41.0109 116.938 40.6089C117.909 40.2069 118.949 40 120 40H296C304.484 40.0095 312.618 43.384 318.617 49.3831C324.616 55.3822 327.99 63.516 328 72V128H312ZM112 67.313L67.313 112H96C100.242 111.995 104.309 110.308 107.308 107.308C110.308 104.309 111.995 100.242 112 96V67.313ZM144 160V184H248V200H144V224H216V240H144V264H216V280H144V304H216V320H144V344H216V360H144V384H184V400H104C97.6371 399.993 91.5369 397.462 87.0376 392.962C82.5384 388.463 80.0074 382.363 80 376V168C80.0074 161.637 82.5384 155.537 87.0376 151.038C91.5369 146.538 97.6371 144.007 104 144H264V160H144ZM128 360H96V376C96.0024 378.121 96.846 380.154 98.3458 381.654C99.8456 383.154 101.879 383.998 104 384H128V360ZM128 320H96V344H128V320ZM128 280H96V304H128V280ZM128 240H96V264H128V240ZM128 200H96V224H128V200ZM128 160H104C101.879 160.002 99.8456 160.846 98.3458 162.346C96.846 163.846 96.0024 165.879 96 168V184H128V160ZM144 112V128H216V112H144ZM288 80H144V96H288V80ZM346.053 256H344V248H328V256H325.947C320.736 256.001 315.695 257.855 311.726 261.233C307.757 264.61 305.12 269.289 304.285 274.433C303.45 279.576 304.473 284.849 307.17 289.308C309.868 293.767 314.063 297.121 319.007 298.769L347.933 308.411C349.273 308.857 350.41 309.766 351.141 310.974C351.872 312.182 352.149 313.611 351.923 315.005C351.697 316.399 350.982 317.667 349.907 318.582C348.831 319.497 347.465 320 346.053 320H325.947C324.37 319.998 322.859 319.371 321.744 318.256C320.629 317.141 320.002 315.63 320 314.053V312H304V314.053C304.007 319.872 306.321 325.45 310.436 329.564C314.55 333.679 320.128 335.993 325.947 336H328V344H344V336H346.053C351.264 335.999 356.305 334.145 360.274 330.767C364.243 327.39 366.88 322.711 367.715 317.567C368.55 312.424 367.527 307.151 364.83 302.692C362.132 298.233 357.937 294.879 352.993 293.231L324.067 283.589C322.727 283.143 321.59 282.234 320.859 281.026C320.128 279.818 319.851 278.389 320.077 276.995C320.303 275.601 321.018 274.333 322.093 273.418C323.169 272.503 324.535 272 325.947 272H346.053C347.63 272.002 349.141 272.629 350.256 273.744C351.371 274.859 351.998 276.37 352 277.947V280H368V277.947C367.993 272.128 365.679 266.55 361.564 262.436C357.45 258.321 351.872 256.007 346.053 256V256ZM269.374 243.988L283.216 252.012C285.333 248.362 288.366 245.329 292.016 243.212L283.992 229.37C277.93 232.887 272.891 237.926 269.374 243.988V243.988ZM264 304H280V264H264V304ZM448.577 234.984L463.423 229.016C454.384 206.537 438.869 188.595 419.734 178.494L412.266 192.645C428.055 200.979 440.95 216.016 448.577 234.984V234.984ZM480 384V472C480 474.122 479.157 476.157 477.657 477.657C476.157 479.157 474.122 480 472 480H400V464H432V388.28L425.32 383.825C407.154 371.714 381.144 374.181 365.657 389.657C364.914 390.4 364.032 390.989 363.062 391.391C362.091 391.793 361.051 392 360 392H292C288.831 392.043 285.804 393.322 283.563 395.563C281.322 397.804 280.043 400.831 280 404C279.995 405.666 280.342 407.314 281.019 408.836C281.98 410.95 283.523 412.746 285.468 414.014C287.413 415.283 289.678 415.972 292 416H352V432H292C289.185 432.048 286.382 431.623 283.708 430.743C276.654 428.57 270.752 423.684 267.3 417.159L240.862 395.126C237.322 391.586 230.597 391.265 226.062 392.335C215.275 394.883 212.594 409.457 221.216 416.157C235.702 427.415 265.316 450.436 278.424 460.637C281.23 462.814 284.679 463.997 288.23 464H384V480H288.23C281.119 479.991 274.211 477.62 268.593 473.261C255.488 463.061 225.88 440.047 211.393 428.786C207.829 426.022 204.947 422.475 202.972 418.42C200.996 414.365 199.979 409.911 200 405.4V405.04C199.982 399.429 201.598 393.934 204.649 389.225C207.701 384.517 212.058 380.798 217.187 378.523C218.807 372.292 222.065 366.609 226.623 362.062C230.061 358.62 231.994 353.955 232 349.09V264C232.022 246.787 238.201 230.149 249.42 217.093C260.639 204.038 276.158 195.427 293.172 192.815L280.41 154.53C280.009 153.327 279.9 152.047 280.091 150.794C280.282 149.54 280.768 148.351 281.51 147.322C282.251 146.294 283.226 145.456 284.354 144.879C285.483 144.301 286.732 144 288 144H384C385.268 144 386.517 144.301 387.646 144.879C388.774 145.456 389.749 146.294 390.49 147.322C391.232 148.351 391.718 149.54 391.909 150.794C392.1 152.047 391.991 153.327 391.59 154.53L378.831 192.807C395.856 195.398 411.388 204.004 422.611 217.066C433.834 230.128 440.003 246.779 440 264V349.09C440.015 353.953 441.947 358.614 445.377 362.062C448.748 365.427 451.42 369.425 453.24 373.826C453.54 374.542 453.808 375.268 454.058 376H472C474.122 376 476.157 376.843 477.657 378.343C479.157 379.843 480 381.878 480 384ZM299.1 160L309.766 192H362.234L372.9 160H299.1ZM429.49 367.675C425.926 362.13 424.021 355.682 424 349.09V264C424.002 256.645 422.555 249.362 419.742 242.567C416.928 235.772 412.803 229.598 407.603 224.397C402.402 219.197 396.228 215.072 389.433 212.258C382.638 209.445 375.355 207.998 368 208H304C289.153 208.017 274.919 213.922 264.42 224.42C253.922 234.919 248.017 249.153 248 264V349.09C247.994 358.199 244.375 366.933 237.938 373.377C237.075 374.245 236.292 375.19 235.6 376.2C236.578 376.313 237.55 376.475 238.511 376.687C238.561 376.696 238.611 376.707 238.659 376.718C243.235 377.737 247.502 379.834 251.105 382.833L265.554 394.875C267.447 389.367 271.014 384.587 275.755 381.203C280.496 377.819 286.175 376 292 376H356.82C368.334 365.737 383.207 360.046 398.63 360H399.46C409.956 359.992 420.285 362.632 429.49 367.675V367.675ZM464 392H448V464H464V392Z" fill="white"/>
</svg>
